<svg width="100" height="100" viewBox="0 0 100 100" fill="none" xmlns="http://www.w3.org/2000/svg">
<g clip-path="url(#clip0_6_50)">
<rect width="100" height="100" rx="3" fill="url(#paint0_radial_6_50)"/>
<g style="mix-blend-mode:overlay">
<rect x="0.5" y="0.5" width="99" height="99" rx="2.5" stroke="white"/>
</g>
<path d="M57.4915 32.1165L66.7706 13.75V13.6009H56V10.2983H70.8615V13.6754L61.593 32.1165H57.4915Z" fill="white" fill-opacity="0.8"/>
<path d="M81.8212 32.4148C80.7772 32.4077 79.758 32.2266 78.7637 31.8715C77.7694 31.5092 76.8745 30.9233 76.079 30.1136C75.2836 29.2969 74.6515 28.2138 74.1827 26.8643C73.714 25.5078 73.4831 23.8281 73.4902 21.8253C73.4902 19.9574 73.6891 18.2919 74.0868 16.8288C74.4846 15.3658 75.0563 14.13 75.802 13.1214C76.5478 12.1058 77.4462 11.3317 78.4973 10.799C79.5556 10.2663 80.7381 10 82.0449 10C83.4157 10 84.6302 10.2699 85.6884 10.8097C86.7537 11.3494 87.6131 12.0881 88.2665 13.0256C88.9199 13.956 89.3248 15.0071 89.481 16.179H85.5925C85.3936 15.3409 84.9853 14.6733 84.3674 14.1761C83.7566 13.6719 82.9824 13.4197 82.0449 13.4197C80.5321 13.4197 79.3674 14.0767 78.5506 15.3906C77.7409 16.7045 77.3326 18.5085 77.3255 20.8026H77.4746C77.8226 20.1776 78.2736 19.6413 78.8276 19.1939C79.3816 18.7464 80.0066 18.402 80.7026 18.1605C81.4057 17.9119 82.1479 17.7876 82.9292 17.7876C84.2076 17.7876 85.3546 18.093 86.3702 18.7038C87.3929 19.3146 88.2026 20.1562 88.7992 21.2287C89.3958 22.294 89.6905 23.5156 89.6834 24.8935C89.6905 26.3281 89.3638 27.6172 88.7033 28.7607C88.0428 29.897 87.123 30.7919 85.9441 31.4453C84.7651 32.0987 83.3908 32.4219 81.8212 32.4148ZM81.7999 29.2188C82.574 29.2188 83.2665 29.0305 83.8773 28.6541C84.4881 28.2777 84.9711 27.7699 85.3262 27.1307C85.6813 26.4915 85.8553 25.7741 85.8482 24.9787C85.8553 24.1974 85.6848 23.4908 85.3368 22.8587C84.9959 22.2266 84.5236 21.7259 83.9199 21.3565C83.3162 20.9872 82.6273 20.8026 81.8532 20.8026C81.2779 20.8026 80.7417 20.9126 80.2445 21.1328C79.7473 21.353 79.3141 21.6584 78.9448 22.049C78.5755 22.4325 78.2843 22.88 78.0712 23.3913C77.8652 23.8956 77.7587 24.4354 77.7516 25.0107C77.7587 25.7706 77.9363 26.4702 78.2843 27.1094C78.6323 27.7486 79.1117 28.2599 79.7225 28.6435C80.3333 29.027 81.0257 29.2188 81.7999 29.2188Z" fill="white" fill-opacity="0.8"/>
<path d="M53.4673 65.4767C53.4673 70.611 52.5127 75.0084 50.6034 78.669C48.7095 82.3142 46.1227 85.1062 42.843 87.0451C39.5787 88.984 35.8756 89.9535 31.7337 89.9535C27.5917 89.9535 23.8809 88.984 20.6012 87.0451C17.3369 85.0907 14.7502 82.2909 12.8409 78.6458C10.947 74.9851 10 70.5954 10 65.4767C10 60.3425 10.947 55.9528 12.8409 52.3077C14.7502 48.647 17.3369 45.8473 20.6012 43.9084C23.8809 41.9695 27.5917 41 31.7337 41C35.8756 41 39.5787 41.9695 42.843 43.9084C46.1227 45.8473 48.7095 48.647 50.6034 52.3077C52.5127 55.9528 53.4673 60.3425 53.4673 65.4767ZM44.8524 65.4767C44.8524 61.8626 44.2904 58.8147 43.1664 56.3329C42.0577 53.8356 40.518 51.9509 38.5471 50.679C36.5762 49.3916 34.3051 48.7479 31.7337 48.7479C29.1623 48.7479 26.8911 49.3916 24.9202 50.679C22.9494 51.9509 21.4019 53.8356 20.2779 56.3329C19.1693 58.8147 18.6149 61.8626 18.6149 65.4767C18.6149 69.0909 19.1693 72.1466 20.2779 74.6439C21.4019 77.1257 22.9494 79.0103 24.9202 80.2977C26.8911 81.5696 29.1623 82.2056 31.7337 82.2056C34.3051 82.2056 36.5762 81.5696 38.5471 80.2977C40.518 79.0103 42.0577 77.1257 43.1664 74.6439C44.2904 72.1466 44.8524 69.0909 44.8524 65.4767Z" fill="url(#paint1_radial_6_50)"/>
<path d="M89.2378 63.0104L81.616 63.8481C81.4005 63.0725 81.0232 62.3435 80.4843 61.661C79.9608 60.9785 79.2525 60.4278 78.3594 60.009C77.4664 59.5902 76.3732 59.3808 75.0798 59.3808C73.3398 59.3808 71.8771 59.7608 70.6914 60.5209C69.5212 61.2809 68.9438 62.2659 68.9592 63.4758C68.9438 64.515 69.3211 65.3604 70.0909 66.0119C70.8762 66.6633 72.1696 67.1985 73.9711 67.6173L80.0224 68.9202C83.379 69.6493 85.8735 70.8048 87.5056 72.387C89.1531 73.9691 89.9846 76.0399 90 78.5992C89.9846 80.8484 89.3302 82.8338 88.0368 84.5556C86.7588 86.2618 84.9804 87.5958 82.7016 88.5575C80.4227 89.5192 77.8051 90 74.8488 90C70.5067 90 67.0114 89.0848 64.363 87.2545C61.7147 85.4087 60.1364 82.8416 59.6283 79.5532L67.7813 78.7621C68.1508 80.3753 68.9361 81.5929 70.1371 82.415C71.3381 83.2371 72.901 83.6481 74.8257 83.6481C76.812 83.6481 78.4056 83.2371 79.6066 82.415C80.823 81.5929 81.4313 80.5769 81.4313 79.367C81.4313 78.3433 81.0386 77.4979 80.2533 76.831C79.4835 76.164 78.2825 75.6521 76.6503 75.2953L70.5991 74.0157C67.1962 73.3022 64.6787 72.1 63.0466 70.4093C61.4144 68.7031 60.606 66.547 60.6214 63.9411C60.606 61.7385 61.1988 59.8306 62.3999 58.2175C63.6163 56.5888 65.3023 55.3324 67.458 54.4482C69.629 53.5486 72.1311 53.0988 74.9643 53.0988C79.1216 53.0988 82.3936 53.9907 84.7802 55.7745C87.1822 57.5582 88.6681 59.9702 89.2378 63.0104Z" fill="url(#paint2_radial_6_50)"/>
</g>
<defs>
<radialGradient id="paint0_radial_6_50" cx="0" cy="0" r="1" gradientUnits="userSpaceOnUse" gradientTransform="translate(10 10) rotate(45) scale(113.137)">
<stop stop-color="#234D74"/>
<stop offset="1" stop-color="#141A1F"/>
</radialGradient>
<radialGradient id="paint1_radial_6_50" cx="0" cy="0" r="1" gradientUnits="userSpaceOnUse" gradientTransform="translate(10 9.99999) rotate(45) scale(113.137 184.714)">
<stop offset="0.500644" stop-color="white"/>
<stop offset="1" stop-color="#B0B0B0"/>
</radialGradient>
<radialGradient id="paint2_radial_6_50" cx="0" cy="0" r="1" gradientUnits="userSpaceOnUse" gradientTransform="translate(10 9.99999) rotate(45) scale(113.137 184.714)">
<stop offset="0.500644" stop-color="white"/>
<stop offset="1" stop-color="#B0B0B0"/>
</radialGradient>
<clipPath id="clip0_6_50">
<rect width="100" height="100" fill="white"/>
</clipPath>
</defs>
</svg>
