<svg xmlns="http://www.w3.org/2000/svg" fill="none" viewBox="0 0 100 100">
  <path fill="url(#a)" d="M0 0h100v100H0z"/>
  <path fill="#191919" d="M57.492 32.117 66.77 13.75v-.15H56v-3.302h14.862v3.377l-9.269 18.442h-4.102ZM81.821 32.415a9.215 9.215 0 0 1-3.057-.543c-.995-.363-1.89-.949-2.685-1.758-.795-.817-1.427-1.9-1.896-3.25-.469-1.356-.7-3.036-.693-5.039 0-1.868.2-3.533.597-4.996.398-1.463.97-2.699 1.715-3.708.746-1.015 1.644-1.79 2.695-2.322 1.059-.533 2.241-.799 3.548-.799 1.37 0 2.585.27 3.643.81a6.862 6.862 0 0 1 2.578 2.216 7.013 7.013 0 0 1 1.215 3.153h-3.888c-.2-.838-.608-1.506-1.226-2.003-.61-.504-1.385-.756-2.322-.756-1.513 0-2.678.657-3.494 1.97-.81 1.314-1.218 3.119-1.225 5.413h.149a5.466 5.466 0 0 1 1.353-1.61 6.183 6.183 0 0 1 1.875-1.033 6.63 6.63 0 0 1 2.226-.372c1.279 0 2.426.305 3.441.916a6.641 6.641 0 0 1 2.43 2.525c.596 1.065.89 2.287.883 3.665.007 1.434-.32 2.723-.98 3.867a7.114 7.114 0 0 1-2.759 2.684c-1.179.654-2.553.977-4.123.97Zm-.021-3.196c.774 0 1.466-.189 2.077-.565a4.09 4.09 0 0 0 1.45-1.523c.354-.64.528-1.357.521-2.152.007-.782-.163-1.488-.511-2.12a3.896 3.896 0 0 0-1.417-1.503c-.604-.369-1.293-.553-2.067-.553-.575 0-1.111.11-1.608.33-.498.22-.93.525-1.3.916-.37.384-.66.831-.874 1.342a4.386 4.386 0 0 0-.32 1.62c.008.76.185 1.46.533 2.098a4.09 4.09 0 0 0 1.438 1.534c.611.384 1.304.576 2.078.576ZM53.467 65.477c0 5.134-.954 9.531-2.864 13.192-1.894 3.645-4.48 6.437-7.76 8.376-3.264 1.939-6.967 2.909-11.11 2.909-4.141 0-7.852-.97-11.132-2.909-3.264-1.954-5.85-4.754-7.76-8.4C10.947 74.986 10 70.596 10 65.478c0-5.135.947-9.524 2.84-13.17 1.91-3.66 4.497-6.46 7.761-8.399C23.881 41.97 27.591 41 31.734 41c4.142 0 7.845.97 11.109 2.908 3.28 1.94 5.866 4.739 7.76 8.4 1.91 3.645 2.864 8.035 2.864 13.169Zm-8.615 0c0-3.614-.562-6.662-1.686-9.144-1.108-2.497-2.648-4.382-4.619-5.654-1.97-1.287-4.242-1.931-6.813-1.931-2.572 0-4.843.644-6.814 1.931-1.97 1.272-3.518 3.157-4.642 5.654-1.109 2.482-1.663 5.53-1.663 9.144s.554 6.67 1.663 9.167c1.124 2.482 2.671 4.366 4.642 5.654 1.971 1.272 4.242 1.908 6.814 1.908 2.571 0 4.842-.636 6.813-1.908 1.971-1.288 3.51-3.172 4.62-5.654 1.123-2.497 1.685-5.553 1.685-9.167ZM89.238 63.01l-7.622.838a6.185 6.185 0 0 0-1.132-2.187c-.523-.683-1.231-1.233-2.125-1.652-.893-.419-1.986-.628-3.28-.628-1.74 0-3.202.38-4.388 1.14-1.17.76-1.747 1.745-1.732 2.955-.015 1.039.362 1.884 1.132 2.536.785.651 2.079 1.186 3.88 1.605l6.051 1.303c3.357.73 5.852 1.885 7.484 3.467 1.647 1.582 2.479 3.653 2.494 6.212-.015 2.25-.67 4.235-1.963 5.957-1.278 1.706-3.057 3.04-5.335 4.002-2.28.961-4.897 1.442-7.853 1.442-4.342 0-7.838-.915-10.486-2.746-2.648-1.845-4.227-4.412-4.735-7.7l8.153-.792c.37 1.613 1.155 2.83 2.356 3.653 1.201.822 2.764 1.233 4.689 1.233 1.986 0 3.58-.41 4.78-1.233 1.217-.822 1.825-1.838 1.825-3.048 0-1.024-.392-1.87-1.178-2.536-.77-.667-1.97-1.179-3.603-1.536l-6.05-1.28c-3.404-.713-5.921-1.915-7.553-3.606-1.633-1.706-2.441-3.862-2.426-6.468-.015-2.203.578-4.11 1.779-5.724 1.216-1.628 2.902-2.885 5.058-3.769 2.171-.9 4.673-1.35 7.506-1.35 4.158 0 7.43.893 9.816 2.677 2.402 1.783 3.888 4.195 4.458 7.235Z"/>
  <defs>
    <radialGradient id="a" cx="0" cy="0" r="1" gradientTransform="rotate(45 -7.071 17.071) scale(113.137)" gradientUnits="userSpaceOnUse">
      <stop stop-color="#D9D9D9"/>
      <stop offset="1" stop-color="#fff"/>
    </radialGradient>
  </defs>
</svg>
